<?xml version="1.0" encoding="UTF-8"?>
<svg width="358px" height="364px" viewBox="0 0 358 364" version="1.1" xmlns="http://www.w3.org/2000/svg" xmlns:xlink="http://www.w3.org/1999/xlink">
    <!-- Generator: Sketch 51.3 (57544) - http://www.bohemiancoding.com/sketch -->
    <title>googleConsole</title>
    <desc>Created with Sketch.</desc>
    <defs>
        <path d="M299.637116,149.753189 C299.049552,66.9223853 231.58389,0.250939269 148.941579,0.839843227 C66.2992675,1.42457056 -0.224625999,69.0482868 0.362937832,151.87909 C0.667137545,194.785547 18.9149532,233.356668 47.9264383,260.488016 L40.2131003,308.81573 L82.7177178,284.81685 C103.249115,295.19576 126.484973,300.967854 151.058475,300.792436 C233.700787,300.207709 300.220513,232.583992 299.637116,149.753189 L299.637116,149.753189 Z" id="path-1"></path>
        <filter x="-16.7%" y="-13.0%" width="133.4%" height="132.5%" filterUnits="objectBoundingBox" id="filter-2">
            <feOffset dx="0" dy="10" in="SourceAlpha" result="shadowOffsetOuter1"></feOffset>
            <feGaussianBlur stdDeviation="15" in="shadowOffsetOuter1" result="shadowBlurOuter1"></feGaussianBlur>
            <feColorMatrix values="0 0 0 0 0   0 0 0 0 0.243137255   0 0 0 0 0.321568627  0 0 0 0.2 0" type="matrix" in="shadowBlurOuter1"></feColorMatrix>
        </filter>
    </defs>
    <g id="Clouds" stroke="none" stroke-width="1" fill="none" fill-rule="evenodd">
        <g id="Google-Cloud-info-page" transform="translate(-521.000000, -98.000000)">
            <g id="googleConsole" transform="translate(550.000000, 117.000000)">
                <g id="Fill-10">
                    <use fill="black" fill-opacity="1" filter="url(#filter-2)" xlink:href="#path-1"></use>
                    <use fill="#FFFFFF" fill-rule="evenodd" xlink:href="#path-1"></use>
                </g>
                <g id="googleCloud" transform="translate(61.363636, 60.088106)" fill-rule="nonzero">
                    <g id="Layer_3" transform="translate(20.454545, 0.000000)">
                        <path d="M86.5210403,30.6605577 L90.6233659,30.6605577 L102.44486,18.7064682 L103.027439,13.6278262 C89.2898058,1.34524028 70.2716041,-2.8745997 52.7304681,2.46771896 C35.189332,7.81003763 21.6116714,21.9572554 16.8219623,39.8825183 C18.1354677,39.3392807 19.5894824,39.2527234 20.9566534,39.6363806 L44.5025458,35.6489492 C44.5025458,35.6489492 45.7000688,33.6388244 46.3231044,33.7618932 C56.8129845,22.0796307 74.4675317,20.7194704 86.5776799,30.6605577 L86.5210403,30.6605577 Z" id="Shape" fill="#EA4335"></path>
                        <path d="M119.242549,39.8414954 C116.530275,29.725152 110.96849,20.629928 103.237815,13.6688491 L86.6909591,30.4472383 C93.6740583,36.2376362 97.6523519,44.9557078 97.4848493,54.1010751 L97.4848493,57.0793417 C105.617959,57.0793417 112.211146,63.7647853 112.211146,72.0116979 C112.211146,80.2586105 105.617959,86.9440541 97.4848493,86.9440541 L68.0322554,86.9440541 L65.0950874,89.9633437 L65.0950874,107.873967 L68.0322554,110.852233 L97.4848493,110.852233 C114.370885,110.984491 129.350276,99.8885631 134.360473,83.5367526 C139.37067,67.1849421 133.229559,49.4353211 119.242549,39.8414954 Z" id="Shape" fill="#4285F4"></path>
                        <path d="M38.5392046,110.688141 L67.9675244,110.688141 L67.9675244,86.7799623 L38.5392046,86.7799623 C36.4417434,86.7803532 34.3689435,86.3213708 32.4625843,85.4344093 L28.3198018,86.7389393 L16.4497592,98.6930288 L15.4140636,102.885575 C22.0737926,107.98024 30.1968342,110.721005 38.5392046,110.688141 Z" id="Shape" fill="#34A853"></path>
                        <path d="M38.5392046,33.1301397 C22.1810303,33.2304375 7.69095467,43.8532711 2.46974667,59.5730554 C-2.75146134,75.2928398 2.44862043,92.6399129 15.4140636,102.754302 L32.5030411,85.4344093 C26.53458,82.6995147 23.0647055,76.2962965 23.9882402,69.7214122 C24.911775,63.146528 30.0067454,57.9802657 36.4908995,57.0438083 C42.9750535,56.1073509 49.2899104,59.6257779 51.9870648,65.6777534 L69.067951,48.3578612 C61.798412,38.7224197 50.5033836,33.0884659 38.5392046,33.1301397 Z" id="Shape" fill="#FBBC05"></path>
                    </g>
                    <g id="Layer_2" transform="translate(0.000000, 139.295154)" fill="#5F6368">
                        <path d="M12.7574097,25.4008811 C9.49647584,25.427672 6.3643931,24.1236302 4.07845579,21.7874009 C1.73756552,19.5230541 0.414923655,16.3991819 0.414923655,13.1347137 C0.414923655,9.87024546 1.73756552,6.74637322 4.07845579,4.48202643 C6.35670292,2.12852852 9.48947571,0.806453422 12.7574097,0.81938326 C15.8824946,0.780079387 18.8932717,1.99869327 21.1182441,4.20343612 L18.7608966,6.60422907 C17.1468005,5.04673847 14.9871984,4.19017299 12.7492528,4.21982379 C10.3949048,4.18399686 8.13486138,5.14804471 6.52552927,6.87462555 C3.12075351,10.3504775 3.12075351,15.9271436 6.52552927,19.4029956 C9.92972,22.8058441 15.4121088,22.8676004 18.8914072,19.5422907 C19.9224279,18.4116156 20.5557028,16.9723818 20.6940847,15.4453744 L12.7981943,15.4453744 L12.7981943,12.0449339 L24.0139477,12.0449339 C24.122618,12.730246 24.1663173,13.4243693 24.1444583,14.1179736 C24.2793355,17.0134738 23.2336888,19.8391429 21.2487547,21.9430837 C19.0380274,24.2583443 15.9490177,25.5162333 12.7574097,25.4008811 Z M38.8595268,23.1475771 C35.7304708,26.156715 30.7973001,26.156715 27.6682441,23.1475771 C24.6208998,20.0094902 24.6208998,15.0027565 27.6682441,11.8646696 C30.7973001,8.85553172 35.7304708,8.85553172 38.8595268,11.8646696 C41.9155356,14.9992094 41.9155356,20.0130373 38.8595268,23.1475771 Z M30.1397883,20.9270485 C31.7548671,22.6623825 34.4645233,22.7540914 36.1922167,21.1318943 L36.3879826,20.9270485 C38.1482,18.982873 38.1482,16.012986 36.3879826,14.0688106 C35.591421,13.2321021 34.4962334,12.7480715 33.3439761,12.7234771 C32.1917187,12.6988827 31.0770519,13.1357451 30.2458281,13.9377093 C30.1968867,13.9377093 30.1561021,14.0278414 30.1153176,14.0688106 C28.3474102,16.0099921 28.3474102,18.9858669 30.1153176,20.9270485 L30.1397883,20.9270485 Z M56.0624533,23.1475771 C52.9333973,26.156715 48.0002266,26.156715 44.8711706,23.1475771 C41.8238263,20.0094902 41.8238263,15.0027565 44.8711706,11.8646696 C48.0002266,8.85553172 52.9333973,8.85553172 56.0624533,11.8646696 C59.1097976,15.0027565 59.1097976,20.0094902 56.0624533,23.1475771 Z M47.3100872,20.9106608 C48.0842673,21.7434944 49.1562629,22.2330346 50.289959,22.2714566 C51.4236551,22.3098785 52.5260592,21.8940307 53.3543587,21.1155066 L53.5582814,20.9106608 C55.3184989,18.9664854 55.3184989,15.9965983 53.5582814,14.0524229 C51.894549,12.3133993 49.143644,12.2547605 47.4079701,13.9213216 L47.2774595,14.0524229 C46.3981281,14.9735683 45.9222865,16.209865 45.9560399,17.4856388 C45.925746,18.7646331 46.4145353,20.001011 47.3100872,20.9106608 Z M67.3353051,32.4721586 C65.7519173,32.5251753 64.1988745,32.0273414 62.9387298,31.0628194 C61.8124532,30.2140072 60.9266848,29.0841307 60.3693026,27.7852863 L63.3873599,26.5234361 C63.7149295,27.2954182 64.2277756,27.9738627 64.8800747,28.4981498 C65.5723576,29.055743 66.4402735,29.3463578 67.3271482,29.317533 C68.4755864,29.3906236 69.5986124,28.9567355 70.4023039,28.1294273 C71.1999607,27.1664273 71.5921091,25.9288022 71.49533,24.6798238 L71.49533,23.5326872 L71.3811333,23.5326872 C70.3835665,24.7708727 68.8626899,25.4633765 67.2782067,25.4008811 C65.265215,25.3998998 63.3460121,24.5460349 61.992528,23.0492511 C60.5170544,21.584215 59.7009344,19.5775946 59.7330635,17.4938326 C59.6989205,15.3952369 60.5143301,13.3726207 61.992528,11.8892511 C63.3524049,10.4054352 65.2704375,9.56398435 67.2782067,9.57039648 C68.1242236,9.56138856 68.9611406,9.7463437 69.7252802,10.1111894 C70.3822869,10.3991138 70.9673773,10.8301222 71.4382316,11.3730396 L71.5605853,11.3730396 L71.5605853,10.1111894 L74.8233499,10.1111894 L74.8233499,24.2455507 C74.9961038,26.505373 74.2349459,28.7369474 72.7188667,30.4155066 C71.2770869,31.8021477 69.3382313,32.5439619 67.343462,32.4721586 L67.3353051,32.4721586 Z M67.5718555,22.2790308 C68.713968,22.3044384 69.8080976,21.8179595 70.5572852,20.95163 C71.3783742,20.0175139 71.8156985,18.8050355 71.7808219,17.5593833 C71.8299475,16.2921594 71.3984911,15.0534289 70.573599,14.0933921 C69.8258052,13.2251687 68.7307402,12.7382738 67.5881694,12.7659912 C66.4156169,12.7413708 65.2892623,13.2249997 64.4966999,14.0933921 C63.6250543,15.0194311 63.1504908,16.2524071 63.1752802,17.5266079 C63.1484646,18.7914372 63.6239329,20.014971 64.4966999,20.9270485 C65.2829422,21.8023672 66.4064633,22.2950129 67.5800125,22.2790308 L67.5718555,22.2790308 Z M80.6229141,1.71251101 L80.6229141,24.9092511 L77.1970112,24.9092511 L77.1970112,1.71251101 L80.6229141,1.71251101 Z M90.1094022,25.4008811 C88.0212501,25.4559582 86.0049243,24.6333038 84.5463885,23.1311894 C83.0628465,21.6431344 82.2545169,19.6072365 82.3113948,17.5020264 C82.2337569,15.3943583 83.0108492,13.3452578 84.4648194,11.8237004 C85.8391843,10.3732438 87.7574807,9.57033571 89.7504981,9.61136564 C90.6571697,9.60171364 91.5563287,9.77734149 92.3933375,10.1275771 C93.1471988,10.43361 93.8343499,10.8845065 94.4162516,11.454978 C94.9152315,11.9508899 95.3583716,12.5004528 95.7376712,13.0937445 C96.0411126,13.5858886 96.3004339,14.1041367 96.5125778,14.6423789 L96.8714819,15.5437004 L86.2674969,19.9110132 C86.9195616,21.4256819 88.4356447,22.3779304 90.0767746,22.3036123 C91.6582398,22.3056222 93.1252507,21.4755276 93.9431507,20.115859 L96.58599,21.9021145 C95.9184652,22.8886945 95.0547161,23.7256644 94.0491905,24.3602643 C92.8627945,25.0803167 91.4949365,25.4416091 90.1094022,25.4008811 Z M85.6965131,17.2644053 L92.7196139,14.3310132 C92.5022322,13.8163358 92.116687,13.3914725 91.6265878,13.1265198 C91.0743588,12.8135995 90.4497466,12.6525002 89.8157534,12.6594714 C88.7409652,12.6877973 87.7207877,13.1412986 86.9771482,13.9213216 C86.0798639,14.7842994 85.6106622,16.003141 85.6965131,17.2480176 L85.6965131,17.2644053 Z" id="Shape"></path>
                        <path d="M114.930884,25.4008811 C112.044228,25.4534849 109.255262,24.3506729 107.178862,22.3355798 C105.102463,20.3204868 103.90913,17.5585783 103.861955,14.6587665 C103.853792,14.5113915 103.853792,14.3636746 103.861955,14.2162996 C103.720558,8.18824354 108.465288,3.18372615 114.46594,3.03171806 L114.906413,3.03171806 C117.912643,2.93894016 120.796443,4.23045366 122.737049,6.53867841 L120.836488,8.39867841 C119.411628,6.5942123 117.213592,5.58310779 114.922727,5.67832599 C112.724261,5.62773536 110.600338,6.47996631 109.041594,8.03814978 C105.854039,11.5408872 105.854039,16.9080996 109.041594,20.410837 C110.600338,21.9690205 112.724261,22.8212514 114.922727,22.7706608 C117.483499,22.8013037 119.918628,21.6581575 121.537983,19.6651982 L123.4467,21.5743612 C122.449234,22.7711714 121.197854,23.7286526 119.784247,24.376652 C118.262722,25.0773112 116.60446,25.4272625 114.930884,25.4008811 Z" id="Shape"></path>
                        <polygon id="Shape" points="128.561083 24.9092511 125.828518 24.9092511 125.828518 3.47418502 128.561083 3.47418502"></polygon>
                        <path d="M133.031071,12.0121586 C136.012926,9.03085388 140.832653,9.03085388 143.814508,12.0121586 C146.631967,15.1875912 146.631967,19.9803383 143.814508,23.1557709 C140.72316,25.9545528 135.982135,25.7972292 133.081402,22.7996092 C130.180669,19.8019893 130.158437,15.0369597 133.031071,12.0121586 Z M135.062142,21.4350661 C136.814763,23.2945259 139.735966,23.3752226 141.587671,21.6153304 L141.767123,21.4350661 C143.658733,19.2192516 143.658733,15.9486779 141.767123,13.7328634 C140.926588,12.8379202 139.765981,12.315896 138.541608,12.2820733 C137.317236,12.2482507 136.129822,12.7054121 135.241594,13.5525991 L135.062142,13.7328634 C133.169489,15.942077 133.169489,19.2094649 135.062142,21.4186784 L135.062142,21.4350661 Z" id="Shape"></path>
                        <path d="M161.074533,24.9092511 L158.431694,24.9092511 L158.431694,22.8771806 L158.358281,22.8771806 C157.883341,23.6471224 157.217113,24.2796563 156.425093,24.7125991 C155.601466,25.1895217 154.667668,25.4409801 153.716999,25.4418502 C152.159271,25.5588211 150.633539,24.9554203 149.573288,23.8030837 C148.57017,22.5306851 148.065318,20.9334927 148.153985,19.3128634 L148.153985,10.2996476 L150.902864,10.2996476 L150.902864,18.8212335 C150.902864,21.552511 152.104649,22.9181498 154.508219,22.9181498 C155.591965,22.9522314 156.625203,22.4576956 157.281569,21.5907489 C157.990031,20.6885564 158.367395,19.5687015 158.350125,18.4197357 L158.350125,10.2996476 L161.08269,10.2996476 L161.074533,24.9092511 Z" id="Shape"></path>
                        <path d="M170.365255,25.4008811 C168.484597,25.4118275 166.694485,24.5906427 165.471108,23.1557709 C162.742791,19.9560757 162.742791,15.2364353 165.471108,12.0367401 C166.699225,10.6082043 168.48626,9.78843118 170.365255,9.79162996 C171.404613,9.77879179 172.43074,10.0266274 173.350685,10.5126872 C174.172767,10.9105289 174.871929,11.5250647 175.373599,12.2907489 L175.495953,12.2907489 L175.373599,10.2586784 L175.373599,3.47418502 L178.106164,3.47418502 L178.106164,24.9092511 L175.463325,24.9092511 L175.463325,22.8771806 L175.349128,22.8771806 C174.858729,23.6414927 174.174585,24.260858 173.366999,24.67163 C172.443051,25.1635243 171.410859,25.4142876 170.365255,25.4008811 Z M170.813885,22.8935683 C172.054554,22.9013393 173.240304,22.3802253 174.07665,21.4596476 C175.838977,19.188252 175.838977,16.004259 174.07665,13.7328634 C172.414898,11.9059676 169.594946,11.7740429 167.771357,13.4378855 L167.477709,13.7328634 C165.716431,15.9954575 165.716431,19.172472 167.477709,21.4350661 C168.328993,22.3789702 169.546268,22.9051566 170.813885,22.8771806 L170.813885,22.8935683 Z" id="Shape"></path>
                    </g>
                </g>
            </g>
        </g>
    </g>
</svg>